<svg id="Layer_1" data-name="Layer 1" xmlns="http://www.w3.org/2000/svg" viewBox="0 0 666.63 146.21" preserveAspectRatio="xMidYMid meet">
  <title>Logo_1</title>
  <path d="M14.8958 0.262695C13.9087 0.262695 13.1085 1.06287 13.1085 2.04993V11.5965C13.1085 12.5766 12.314 13.3712 11.3339 13.3712L1.78724 13.3712C0.800174 13.3712 1.25813e-06 14.1713 1.17184e-06 15.1584L0 26.7754C0 27.7625 0.80017 28.5627 1.78723 28.5627L3.36052 28.5627C9.8946 28.5627 15.1915 23.2658 15.1915 16.7317C15.1915 16.0261 15.7635 15.4542 16.469 15.4542H24.4431C25.4233 15.4542 26.2178 16.2487 26.2178 17.2288V25.2014C26.2178 25.9074 25.6455 26.4797 24.9395 26.4797C18.4054 26.4797 13.1085 31.7766 13.1085 38.3107V39.8839C13.1085 40.871 13.9087 41.6712 14.8958 41.6712H26.5128C27.4999 41.6712 28.3 40.871 28.3 39.8839V30.3373C28.3 29.3572 29.0946 28.5627 30.0747 28.5627H39.6221C40.6091 28.5627 41.4093 27.7625 41.4093 26.7754V15.1584C41.4093 14.1714 40.6091 13.3712 39.6221 13.3712H30.0747C29.0946 13.3712 28.3 12.5766 28.3 11.5965V2.04993C28.3 1.06287 27.4999 0.262695 26.5128 0.262695H14.8958Z" fill="#3D65FF"/>
  <text x="45" y="40" font-family="Arial" font-size="50" font-weight="bold" fill="#ffc10e">BookingDoctor</text>
</svg>
